# xmcd
#
# Track frame offsets: 
#        150
#        11392
#        26394
#        40965
#        56427
#        72597
#        85035
#        106972
#        114050
#        130252
#        140952
#        158977
#        180067
#        205787
#        213240
#
# Disc length: 2989 seconds
#
# Revision: 4
# Processed by: cddbd v1.4PL0 Copyright (c) Steve Scherf et al.
# Submitted via: ExactAudioCopy v0.90a11
#
DISCID=c00bab0f
DTITLE=Johnny Dowd - Wrong Side of Memphis
DYEAR=1900
DGENRE=
TTITLE0=Murder
TTITLE1=Papa, Oh, Papa
TTITLE2=Ft. Worth, Texas
TTITLE3=One Way
TTITLE4=Just Like a Dog
TTITLE5=Average Guy
TTITLE6=Ballad of Frank and Jesse James
TTITLE7=Idle Conversation
TTITLE8=Wages of Sin
TTITLE9=John Deere Yeller
TTITLE10=Thanksgiving Day
TTITLE11=Heavenly Feast
TTITLE12=First There Was
TTITLE13=I Don't Exist
TTITLE14=Welcome Jesus
EXTD=
EXTT0=
EXTT1=
EXTT2=
EXTT3=
EXTT4=
EXTT5=
EXTT6=
EXTT7=
EXTT8=
EXTT9=
EXTT10=
EXTT11=
EXTT12=
EXTT13=
EXTT14=
PLAYORDER=
